<mxfile host="app.diagrams.net" modified="2023-08-18T00:36:55.604Z" agent="Mozilla/5.0 (Windows NT 10.0; Win64; x64) AppleWebKit/537.36 (KHTML, like Gecko) Chrome/115.0.0.0 Safari/537.36 Edg/115.0.1901.203" version="21.6.8" etag="hMZFgaD6XVBY4PuLx4P5" type="github">
  <diagram name="第 1 页" id="17c5wgEP4A8ISd4dHExI">
    <mxGraphModel>
      <root>
        <mxCell id="0" />
        <mxCell id="1" parent="0" />
      </root>
    </mxGraphModel>
  </diagram>
</mxfile>
